<?xml version="1.0" ?><!DOCTYPE svg  PUBLIC '-//W3C//DTD SVG 1.1//EN'  'http://www.w3.org/Graphics/SVG/1.1/DTD/svg11.dtd'><svg enable-background="new 0 0 160 80" id="Layer_1" version="1.1" viewBox="0 0 160 80" xml:space="preserve" xmlns="http://www.w3.org/2000/svg" xmlns:xlink="http://www.w3.org/1999/xlink"><g><rect height="9" width="9" x="105" y="6"/><rect height="8" width="9" x="96" y="15"/><rect height="9" width="8" x="88" y="23"/><rect height="9" width="8" x="88" y="40"/><rect height="8" width="9" x="96" y="49"/><rect height="9" width="9" x="105" y="57"/><rect height="9" width="8" x="54" y="57"/><rect height="8" width="9" x="62" y="49"/><rect height="8" width="9" x="45" y="49"/><rect height="9" width="8" x="54" y="40"/><rect height="9" width="8" x="71" y="40"/><rect height="9" width="8" x="71" y="23"/><rect height="8" width="9" x="62" y="15"/><rect height="9" width="8" x="54" y="6"/><rect height="9" width="8" x="54" y="23"/><rect height="9" width="9" x="62" y="40"/><rect height="9" width="9" x="62" y="23"/><rect height="8" width="9" x="45" y="15"/><rect height="8" width="9" x="79" y="32"/><rect height="8" width="8" x="71" y="32"/></g></svg>